HIERARCHY
ROOT root
{
	OFFSET	0	13.1	24.9
	CHANNELS 6  Xposition Yposition Zposition Xrotation Yrotation Zrotation
	JOINT spine_1
	{
		OFFSET	0	9.99999	0
		CHANNELS 3  Xrotation Yrotation Zrotation
		JOINT spine_2
		{
			OFFSET	0	112	-10
			CHANNELS 3  Xrotation Yrotation Zrotation
			JOINT spine_3
			{
				OFFSET	0	206.5	19.3
				CHANNELS 3  Xrotation Yrotation Zrotation
				JOINT spine_4
				{
					OFFSET	0	110.4	14.6
					CHANNELS 3  Xrotation Yrotation Zrotation
					JOINT neck_1
					{
						OFFSET	0	71.8	-50.3
						CHANNELS 3  Xrotation Yrotation Zrotation
						JOINT neck_2
						{
							OFFSET	0	86.2	-25.8
							CHANNELS 3  Xrotation Yrotation Zrotation
							JOINT head_ee
							{
								OFFSET	0	179.8	-8.7
								CHANNELS 3  Xrotation Yrotation Zrotation
								End Site
								{
									OFFSET	1	0	0
								}
							}
						}
					}
					JOINT left_clavicle
					{
						OFFSET	-43.2	22.4	-70.8
						CHANNELS 3  Xrotation Yrotation Zrotation
						JOINT left_shoulder
						{
							OFFSET	-93.9	-5.79999	48.7
							CHANNELS 3  Xrotation Yrotation Zrotation
							JOINT left_elbow
							{
								OFFSET	-291.4	-30.8	15.2
								CHANNELS 3  Xrotation Yrotation Zrotation
								JOINT left_lowarm_twist
								{
									OFFSET	-110.7	-3.89999	13.6
									CHANNELS 3  Xrotation Yrotation Zrotation
									JOINT left_hand
									{
										OFFSET	-110.7	-3.89999	13.6
										CHANNELS 3  Xrotation Yrotation Zrotation
										JOINT left_ee
										{
											OFFSET	-80.8	-5.10001	12.1
											CHANNELS 3  Xrotation Yrotation Zrotation
											End Site
											{
												OFFSET	1	0	0
											}
										}
									}
								}
							}
						}
					}
					JOINT right_clavicle
					{
						OFFSET	43.2	22.4	-70.8
						CHANNELS 3  Xrotation Yrotation Zrotation
						JOINT right_shoulder
						{
							OFFSET	93.9	-5.79999	48.7
							CHANNELS 3  Xrotation Yrotation Zrotation
							JOINT right_elbow
							{
								OFFSET	291.4	-30.8	15.2
								CHANNELS 3  Xrotation Yrotation Zrotation
								JOINT right_lowarm_twist
								{
									OFFSET	110.7	-3.89999	13.6
									CHANNELS 3  Xrotation Yrotation Zrotation
									JOINT right_hand
									{
										OFFSET	110.7	-3.89999	13.6
										CHANNELS 3  Xrotation Yrotation Zrotation
										JOINT right_ee
										{
											OFFSET	80.8	-5.10001	12.1
											CHANNELS 3  Xrotation Yrotation Zrotation
											End Site
											{
												OFFSET	1	0	0
											}
										}
									}
								}
							}
						}
					}
				}
			}
		}
	}
	JOINT left_hip
	{
		OFFSET	-82.8	-127.5	0.300001
		CHANNELS 3  Xrotation Yrotation Zrotation
		JOINT left_knee
		{
			OFFSET	-28.2	-396.7	2.2
			CHANNELS 3  Xrotation Yrotation Zrotation
			JOINT left_ankle
			{
				OFFSET	-11.7	-411.3	35.4
				CHANNELS 3  Xrotation Yrotation Zrotation
				JOINT left_toes
				{
					OFFSET	0	-60	-88.6
					CHANNELS 3  Xrotation Yrotation Zrotation
					JOINT left_foot_ee
					{
						OFFSET	-22.5	-16.5	-42.2
						CHANNELS 3  Xrotation Yrotation Zrotation
						End Site
						{
							OFFSET	1	0	0
						}
					}
				}
			}
		}
	}
	JOINT right_hip
	{
		OFFSET	82.8	-127.5	0.300001
		CHANNELS 3  Xrotation Yrotation Zrotation
		JOINT right_knee
		{
			OFFSET	28.2	-396.7	2.2
			CHANNELS 3  Xrotation Yrotation Zrotation
			JOINT right_ankle
			{
				OFFSET	11.7	-411.3	35.4
				CHANNELS 3  Xrotation Yrotation Zrotation
				JOINT right_toes
				{
					OFFSET	0	-60	-88.6
					CHANNELS 3  Xrotation Yrotation Zrotation
					JOINT right_foot_ee
					{
						OFFSET	22.5	-16.5	-42.2
						CHANNELS 3  Xrotation Yrotation Zrotation
						End Site
						{
							OFFSET	1	0	0
						}
					}
				}
			}
		}
	}
}
MOTION
Frames: 15
Frame Time: 0.02
1343.28 727.887 -547.292 -178.319 -76.2115 -173.256 1.7109 -0.172594 -2.11017 1.71338 -0.0379989 -2.11687 1.71483 0.345557 -2.08884 1.70874 0.0114044 -2.11719 -11.0378 -0.978411 12.4629 -10.6268 -10.0981 11.863 -0.0 0.0 -0.0 2.59164 3.1402 5.21776 7.63916 -19.5636 64.6467 1.02145 -26.8386 0.243713 -8.42623 -0.371949 1.01002 1.32948 16.5633 15.0706 -0.0 0.0 -0.0 4.40359 22.3454 -6.92975 -19.9703 24.9691 -70.3785 0.190587 5.3935 -0.00897698 31.8563 -0.00525871 4.01746 1.90575 8.9956 -9.08304 0.0 0.0 0.0 2.66112 31.6003 -2.27219 6.45812 -0.319279 -0.938745 23.0373 -3.92508 -3.15536 -12.2883 0.0 0.0 -0.0 0.0 -0.0 31.999 12.1786 -12.7671 -66.7572 2.97209 -9.22566 30.9207 -1.54284 3.99791 6.18577 -0.0 -0.0 0.0 0.0 0.0 
1364.88 728.066 -555.04 -178.297 -74.8473 -173.676 1.7472 -0.176796 -2.17764 1.74984 -0.0379026 -2.18448 1.75131 0.356518 -2.15554 1.74483 0.0117021 -2.18477 -11.2624 -0.879421 12.8162 -10.8291 -10.102 12.2116 -0.0 0.0 -0.0 2.28889 2.16061 4.57724 8.00126 -20.043 63.5415 1.06727 -27.8644 0.264766 -7.64732 -0.331367 0.919041 1.22449 13.9382 13.4975 -0.0 0.0 -0.0 3.55905 22.7916 -5.05816 -23.0001 24.6811 -70.6897 0.216866 6.13187 -0.0116157 31.8751 -0.00460355 4.01977 1.7111 8.86281 -7.81241 0.0 0.0 0.0 1.09853 30.3452 -0.852881 6.28264 -0.30921 -0.913728 24.3409 -5.61843 -3.33053 -11.9318 0.0 0.0 -0.0 0.0 -0.0 33.4102 11.3946 -13.2746 -58.3973 2.02943 -8.3465 27.9196 -1.95365 3.67242 4.99511 -0.0 -0.0 0.0 0.0 0.0 
1385.21 730.271 -558.897 -175.672 -74.185 -171.068 2.13718 -0.193506 -2.26495 2.14003 -0.0490274 -2.27267 2.14172 0.346172 -2.24669 2.13468 -0.0129009 -2.27316 -9.75788 -0.0272102 13.3648 -9.25748 -9.18168 13.1197 -0.0 0.0 -0.0 2.25733 2.95305 4.57801 8.49958 -20.328 62.8678 1.21475 -31.0362 0.337305 -7.11025 -0.304109 0.855996 0.786566 11.2163 9.68061 -0.0 0.0 -0.0 3.11026 22.8543 -4.081 -24.8348 24.5335 -71.042 0.235584 6.65654 -0.0137004 32.0741 0.00239377 4.04422 1.344 7.34597 -5.96596 0.0 0.0 0.0 0.053905 29.4887 -0.138967 6.25175 -0.307445 -0.90932 25.3296 -5.5307 -3.44566 -11.7828 0.0 0.0 -0.0 0.0 -0.0 32.9248 10.7874 -12.18 -53.0804 1.5009 -7.72044 25.8132 -2.25263 3.43409 4.88188 -0.0 -0.0 0.0 0.0 0.0 
1405.17 728.985 -556.235 -175.518 -74.2457 -170.832 2.36066 -0.2886 -2.34858 2.36372 -0.138612 -2.36217 2.36902 0.264092 -2.35146 2.36132 -0.110484 -2.36365 -8.73699 0.562028 13.688 -8.19798 -8.52437 13.6819 -0.0 0.0 -0.0 2.32805 3.5082 4.75161 8.92275 -20.5091 62.5082 1.32516 -33.281 0.396082 -6.73418 -0.285376 0.811702 0.478144 9.26904 6.93609 -0.0 0.0 -0.0 2.98602 22.491 -3.84874 -25.9529 24.4214 -71.7203 0.24882 7.0269 -0.0152772 32.2211 0.00761876 4.06227 1.08185 6.24266 -4.65668 0.0 0.0 0.0 -0.693745 28.8964 0.174035 5.80932 -0.282434 -0.846099 26.0053 -5.40421 -3.52241 -11.6921 0.0 0.0 -0.0 0.0 -0.0 33.4611 10.2503 -11.4522 -49.3405 1.16522 -7.25241 24.2995 -2.42158 3.25826 4.7791 -0.0 -0.0 0.0 0.0 0.0 
1426.71 728.593 -556.778 -176.547 -74.1401 -172.102 2.36977 -0.363068 -2.42422 2.37302 -0.20812 -2.44239 2.38148 0.208618 -2.44235 2.3732 -0.179605 -2.44465 -8.68618 1.26037 13.7293 -8.14475 -7.26118 13.8766 -0.0 0.0 -0.0 2.31299 4.01069 4.76044 9.72332 -20.5494 61.8781 1.41923 -35.1069 0.448958 -6.0057 -0.249918 0.725559 0.193995 7.29864 4.30349 -0.0 0.0 -0.0 2.79335 20.915 -3.58981 -29.7837 24.6148 -72.0858 0.223791 6.3261 -0.0123671 32.096 0.0031706 4.04691 0.821538 5.54805 -3.18967 0.0 0.0 0.0 -3.02385 28.6472 0.222551 5.23247 -0.25056 -0.763389 26.6443 -4.75609 -3.58746 -11.2049 0.0 0.0 -0.0 0.0 -0.0 34.863 9.63519 -11.0127 -44.0246 0.742455 -6.55228 23.0107 -2.03806 3.10774 3.9715 -0.0 -0.0 0.0 0.0 0.0 
1444.84 723.731 -555.497 -176.347 -74.4405 -171.788 2.62635 -0.450292 -2.66152 2.63025 -0.280082 -2.68476 2.64262 0.166423 -2.69419 2.63259 -0.261005 -2.68668 -8.98204 1.86611 13.7088 -8.44592 -6.04723 13.9584 -0.0 0.0 -0.0 2.58603 4.2452 5.28269 10.8987 -20.715 61.6451 1.50589 -36.7196 0.499795 -5.50518 -0.226193 0.666119 -0.0728778 5.88338 1.98009 -0.0 0.0 -0.0 2.86083 19.988 -3.8264 -31.6903 24.8255 -72.0627 0.205731 5.81923 -0.0104565 32.2609 0.00904061 4.06715 0.50386 3.97692 -1.7082 0.0 0.0 0.0 -4.76801 29.6923 0.682038 4.79978 -0.2272 -0.701143 27.1922 -3.52551 -3.63508 -10.8657 0.0 0.0 -0.0 0.0 -0.0 35.8639 9.2903 -10.7781 -39.8999 0.460411 -5.98427 22.1715 -1.74565 3.00847 3.40626 -0.0 -0.0 0.0 0.0 0.0 
1455.61 724.452 -554.448 -175.517 -74.6144 -170.96 2.87258 -0.417387 -2.86112 2.87711 -0.234558 -2.88185 2.88769 0.231572 -2.8821 2.87617 -0.226313 -2.88251 -9.74104 2.31123 13.9656 -9.18969 -5.21342 14.2512 -0.0 0.0 -0.0 2.5347 4.44306 5.20121 11.6623 -20.7436 61.2524 1.57018 -37.8739 0.538754 -5.01523 -0.203475 0.607738 -0.295189 4.89548 0.10879 -0.0 0.0 -0.0 2.95635 19.479 -4.08133 -32.3335 25.0246 -71.652 0.197813 5.59673 -0.00966902 32.4535 0.0159738 4.09078 0.245542 2.60609 -0.54739 0.0 0.0 0.0 -5.37422 30.3924 0.853978 5.31257 -0.254936 -0.774892 27.6636 -2.67402 -3.67886 -10.6211 0.0 0.0 -0.0 0.0 -0.0 36.126 9.07331 -10.4016 -35.1316 0.186439 -5.30485 21.6209 -1.53864 2.94279 3.02788 -0.0 -0.0 0.0 0.0 0.0 
1469.72 724.946 -551.195 -177.493 -74.4426 -172.831 2.7888 -0.385246 -2.92235 2.79353 -0.198591 -2.94092 2.80254 0.280984 -2.9342 2.79058 -0.185737 -2.94176 -10.4241 2.59174 14.1767 -9.85899 -4.6639 14.4765 -0.0 0.0 -0.0 2.53303 4.57264 5.20694 12.2904 -20.7767 60.9876 1.61961 -38.7374 0.569395 -4.67178 -0.187848 0.566699 -0.446272 4.13535 -1.20819 -0.0 0.0 -0.0 2.98375 19.0734 -4.17927 -32.9613 25.1416 -71.3232 0.192202 5.43895 -0.00912951 32.5727 0.0203004 4.10537 0.0598934 1.62661 0.285438 0.0 0.0 0.0 -5.91418 30.894 0.947647 5.32092 -0.255393 -0.77609 28.0283 -2.02837 -3.71304 -10.4367 0.0 0.0 -0.0 0.0 -0.0 36.7782 8.83278 -10.1917 -31.1178 0.000367123 -4.71722 21.2597 -1.39112 2.8995 2.76258 -0.0 -0.0 0.0 0.0 0.0 
1478.16 721.3 -556.851 -175.433 -73.7481 -171.342 2.74174 -0.349418 -2.85989 2.74628 -0.166805 -2.87631 2.75357 0.304349 -2.86503 2.74215 -0.151755 -2.87714 -11.075 2.80242 14.3603 -10.4973 -4.22705 14.6671 -0.0 0.0 -0.0 2.80455 4.51952 5.70452 13.9459 -20.9202 61.1904 1.71932 -40.4175 0.632924 -4.40899 -0.176057 0.535238 -0.563025 3.43265 -2.28038 -0.0 0.0 -0.0 2.88123 18.7896 -3.98652 -33.4174 25.2665 -71.0936 0.198406 5.6134 -0.00972689 32.6541 0.0232756 4.11535 -0.0696433 0.941171 0.863299 0.0 0.0 0.0 -6.51466 31.2274 1.42122 5.32112 -0.255403 -0.776119 28.6228 -1.63278 -3.77484 -10.1931 0.0 0.0 -0.0 0.0 -0.0 38.1577 8.45588 -10.2255 -26.4434 -0.16378 -4.01882 21.2988 -1.19294 2.90529 2.62316 -0.0 -0.0 0.0 0.0 0.0 
1498.46 717.222 -556.81 -174.625 -73.5135 -170.191 2.68767 -0.275672 -2.90399 2.69236 -0.0904058 -2.91563 2.69587 0.389156 -2.89098 2.68421 -0.0721033 -2.91614 -11.6832 2.90213 14.4982 -11.0961 -3.97417 14.793 -0.0 0.0 -0.0 2.87273 4.64215 5.83794 15.0332 -20.9939 61.0167 1.85057 -42.5078 0.719844 -4.22837 -0.168037 0.513583 -0.652574 2.82635 -3.13535 -0.0 0.0 -0.0 2.8762 18.8175 -3.97304 -33.2602 25.4725 -70.8474 0.214148 6.0556 -0.0113273 32.7381 0.0263594 4.12563 -0.164697 0.4304 1.28258 0.0 0.0 0.0 -6.91918 31.3573 1.75426 5.32215 -0.25546 -0.776267 29.3081 -1.43821 -3.84769 -9.96758 0.0 0.0 -0.0 0.0 -0.0 39.5361 8.04578 -9.57966 -21.9326 -0.267672 -3.33457 21.3814 -1.06686 2.91601 2.52554 -0.0 -0.0 0.0 0.0 0.0 
1505.89 716.103 -559.531 -172.496 -73.2139 -168.593 2.581 -0.226376 -2.8961 2.58567 -0.04171 -2.90462 2.5868 0.440914 -2.87129 2.5753 -0.0178881 -2.90487 -12.1604 2.94209 14.5874 -11.5671 -3.83294 14.8662 -0.0 0.0 -0.0 2.94778 5.01736 5.99862 15.9619 -20.9873 61.0467 1.97103 -44.3107 0.802636 -4.08157 -0.16157 0.495964 -0.71832 2.33987 -3.78317 -0.0 0.0 -0.0 2.85499 18.773 -3.93182 -33.2047 25.605 -70.6776 0.224732 6.35249 -0.012471 32.8008 0.0286707 4.1333 -0.23269 0.0642018 1.58132 0.0 0.0 0.0 -7.20745 31.4401 1.9857 5.3233 -0.255523 -0.776432 29.8896 -1.31716 -3.9092 -9.78268 0.0 0.0 -0.0 0.0 -0.0 40.5106 7.75823 -9.16863 -18.3226 -0.31183 -2.7825 21.4772 -0.951132 2.92832 2.46724 -0.0 -0.0 0.0 0.0 0.0 
1520.44 719.516 -558.06 -171.227 -74.0172 -167.708 2.46918 -0.191894 -2.82668 2.47362 -0.01171 -2.83316 2.47338 0.464193 -2.79493 2.46248 0.017145 -2.83313 -13.3818 2.32521 13.3906 -12.8865 -3.93123 13.4879 -0.0 0.0 -0.0 3.32874 8.71557 6.87494 16.6552 -20.7332 61.4864 2.24673 -48.0538 1.00168 -5.16793 -0.210501 0.625953 -0.758113 0.126174 -5.01393 -0.0 0.0 -0.0 2.90636 18.4096 -4.07686 -32.1571 25.2515 -71.258 0.24949 7.04562 -0.0153592 32.8893 0.0319474 4.14412 -0.36135 -0.38992 2.24674 0.0 0.0 0.0 -7.73215 30.8139 2.32412 4.9798 -0.236861 -0.727062 32.8246 -2.41853 -4.22577 -9.46807 0.0 0.0 -0.0 0.0 -0.0 41.2296 6.9992 -10.229 -14.462 -0.320491 -2.19035 22.2897 -1.0921 3.02602 2.47992 -0.0 -0.0 0.0 0.0 0.0 
1529.47 718.578 -551.633 -169.767 -74.409 -165.809 2.41316 -0.171269 -2.82429 2.41759 0.00872138 -2.82946 2.4164 0.48651 -2.78737 2.40556 0.0403755 -2.82919 -14.2435 1.92896 12.5359 -13.8132 -3.95583 12.5207 -0.0 0.0 -0.0 3.73893 11.3692 7.68271 17.151 -20.5256 61.8448 2.46811 -50.712 1.16976 -5.90793 -0.245243 0.713965 -0.779638 -1.53694 -5.8845 -0.0 0.0 -0.0 3.10235 18.2669 -4.51049 -30.8349 25.1055 -71.7314 0.277069 7.81531 -0.0189259 32.948 0.0341305 4.1513 -0.452346 -0.714078 2.71503 0.0 0.0 0.0 -8.08528 30.3763 2.48718 4.71145 -0.22249 -0.688416 34.8768 -3.09861 -4.43696 -9.24846 0.0 0.0 -0.0 0.0 -0.0 41.7191 6.45769 -10.9145 -11.366 -0.29861 -1.71589 23.0335 -1.17358 3.11474 2.54583 -0.0 -0.0 0.0 0.0 0.0 
1546.47 709.979 -547.153 -168.872 -73.2897 -164.824 2.41378 -0.197927 -2.76687 2.41804 -0.0215311 -2.77386 2.41837 0.447158 -2.73769 2.40791 0.00935257 -2.77392 -14.8554 1.69656 11.9306 -14.468 -3.89851 11.8523 -0.0 0.0 -0.0 4.00901 12.9389 8.17579 17.4841 -20.4084 62.0156 2.65082 -52.7004 1.31318 -6.34788 -0.266436 0.766077 -0.818463 -2.84676 -6.71845 -0.0 0.0 -0.0 2.97168 18.1655 -4.24011 -30.1802 25.1986 -71.6305 0.295717 8.33414 -0.0215452 32.987 0.0355866 4.15608 -0.516598 -0.94294 3.04516 0.0 0.0 0.0 -8.17683 30.1204 2.13276 4.31249 -0.201458 -0.63084 36.2282 -3.33073 -4.56901 -9.09158 0.0 0.0 -0.0 0.0 -0.0 42.0307 6.14997 -11.1743 -9.12378 -0.266774 -1.37333 23.8348 -1.184 3.20969 2.69958 -0.0 -0.0 0.0 0.0 0.0 
1567.83 688.567 -548.853 -168.632 -72.6104 -164.453 2.49505 -0.384756 -2.77441 2.49931 -0.207504 -2.79325 2.50872 0.262518 -2.78862 2.49791 -0.181009 -2.79509 -12.832 1.75279 11.1499 -12.4888 -3.72016 11.1917 -0.0 0.0 -0.0 4.27441 14.0391 8.63143 19.5957 -19.8596 61.6854 2.79093 -54.1116 1.42568 -6.65614 -0.281525 0.802495 -0.884105 -3.09587 -7.27181 -0.0 0.0 -0.0 2.75976 17.3357 -3.86563 -29.7754 25.5599 -71.4443 0.287384 8.10246 -0.0203542 32.9451 0.0340225 4.15095 -0.572415 -1.87727 3.01379 0.0 0.0 0.0 -8.94055 30.2228 2.68609 0.836054 -0.035329 -0.123431 40.1378 -3.43064 -4.92179 -7.83732 0.0 0.0 -0.0 0.0 -0.0 42.241 5.92467 -11.5796 -7.5526 -0.236489 -1.13414 25.0083 -1.14512 3.34706 2.91735 -0.0 -0.0 0.0 0.0 0.0 
